<svg id="Layer_1" data-name="Layer 1" xmlns="http://www.w3.org/2000/svg" width="256" height="256" viewBox="0 0 256 256"><path d="M75.9,50.2a93.8,93.8,0,0,1,19.9,2,42,42,0,0,1,15.4,6.3,29,29,0,0,1,10,11.6c2.3,4.8,3.5,10.8,3.5,17.9s-1.8,14.1-5.3,19.3-8.6,9.3-15.5,12.6c9.4,2.7,16.3,7.4,20.9,14.2s6.9,14.9,6.9,24.5c0,7.7-1.4,14.4-4.4,20a38.6,38.6,0,0,1-12.1,13.8,51.3,51.3,0,0,1-17.4,7.9,73.4,73.4,0,0,1-19.9,2.6H3.9V50.2Zm-4.4,61.7c6,0,10.9-1.4,14.8-4.3s5.8-7.5,5.8-13.9A18.7,18.7,0,0,0,90.2,85,13.3,13.3,0,0,0,85,79.7,21,21,0,0,0,77.6,77a41.1,41.1,0,0,0-8.6-.8H37.5v35.7Zm1.9,65a47.6,47.6,0,0,0,9.4-.9,21.6,21.6,0,0,0,7.9-3.3,16.3,16.3,0,0,0,5.5-6.1c1.4-2.5,2-5.9,2-9.9q0-11.7-6.6-16.8c-4.4-3.4-10.3-5-17.5-5H37.5v42Z" stroke="#000" stroke-miterlimit="10"/><path d="M179.7,176.4c4.5,4.4,11.1,6.7,19.6,6.7a27.4,27.4,0,0,0,15.9-4.7c4.4-3,7-6.3,8.1-9.8H250c-4.3,13.4-10.8,22.9-19.7,28.6s-19.5,8.6-32,8.6a63.2,63.2,0,0,1-23.6-4.2,50.2,50.2,0,0,1-17.8-11.9,54.7,54.7,0,0,1-11.3-18.4,68.3,68.3,0,0,1-3.9-23.6,64.4,64.4,0,0,1,4-23.1,54.2,54.2,0,0,1,29.5-30.9,57.7,57.7,0,0,1,23.1-4.5c9.3,0,17.5,1.8,24.6,5.5a48.8,48.8,0,0,1,17.2,14.6,61.2,61.2,0,0,1,9.7,21,77.4,77.4,0,0,1,2.1,24.6H172.1C172.1,163.7,175.1,172,179.7,176.4Zm34.9-58.1c-3.7-4-9.8-6.1-17.2-6.1a26.9,26.9,0,0,0-12.1,2.4,26.3,26.3,0,0,0-7.7,6.1,22.6,22.6,0,0,0-4.1,7.8,46.3,46.3,0,0,0-1.4,7.3h49.5C220.8,128.1,218.2,122.3,214.6,118.3Z" stroke="#000" stroke-miterlimit="10"/><rect x="165.9" y="60.5" width="61.9" height="15.07" stroke="#000" stroke-miterlimit="10"/></svg>