<svg xmlns="http://www.w3.org/2000/svg"><symbol id="email" viewBox="0 0 256 256"><rect width="239" height="164.7" x="8.5" y="45.6" fill="none" stroke="#000" stroke-linecap="round" stroke-linejoin="round" stroke-width="13" rx="14.4"/><path fill="none" stroke="#000" stroke-linecap="round" stroke-linejoin="round" stroke-width="13" d="M243.4 50l-68.2 72.6a64.2 64.2 0 0 1-93.2.3l-69.3-73m80 88.6l-79.6 68m151.4-68l78.5 67.9"/></symbol><symbol id="previous" viewBox="0 0 256 256"><path stroke="#000" stroke-miterlimit="10" d="M77.4 91.4l82.9-80.2a26.5 26.5 0 0 1 36.6 0 26.3 26.3 0 0 1 0 37.8l-81.7 79 81.7 79a26.3 26.3 0 0 1 0 37.8 26.5 26.5 0 0 1-36.6 0l-82.9-80.2-18.3-17.7a26.3 26.3 0 0 1 0-37.8z"/></symbol><symbol id="logo" viewBox="0 0 230.4 144"><path fill="#f66256" d="M79.4 7h24.9v88.4c0 21.6-11 36.4-42.8 36.4-25.4 0-41-13.1-41-33.8v-5.4c0-3.3 3.1-6 7-6l23 .3.3 5.9c0 4.6 2.7 12.1 10.7 12.1 9.8 0 11.3-8.5 11.3-16.7L72.5 13c0-3.3 3-6 6.9-6z"/><path fill="#94d2d4" d="M66.7 12.2h25.1v88.5c0 21.6-11 36.3-42.9 36.3C23.5 137 8 123.9 8 103.3v-5.1c0-3.5 3.3-6.4 7.4-6.3l22.6.2.3 5.9c0 4.6 2.7 12.1 10.6 12.1 9.9 0 11.4-8.5 11.4-16.7L60 18.1c-.1-3.2 3-5.9 6.7-5.9z"/><path fill="#2f3540" d="M91.9 100.7V12.2H72.6l.4 76c0 8.2-1.5 16.7-11.4 16.7a9.5 9.5 0 0 1-3-.4c-1.5 3.4-4.4 5.6-9.5 5.6-8 0-10.6-7.5-10.6-12.1l-.4-5.9-17.4-.2V98c0 20.7 15.5 33.8 40.9 33.8a76.4 76.4 0 0 0 17-1.8c9.6-6.4 13.3-16.7 13.3-29.3zm32.4-28.5l1.9-5.3a4.6 4.6 0 0 0 2.3.6 1.9 1.9 0 0 0 1.6-.7 3.3 3.3 0 0 0 .6-2.1V43.9h7.5v20.8a8.5 8.5 0 0 1-2.3 6.3 8.8 8.8 0 0 1-6.4 2.3 10.9 10.9 0 0 1-5.2-1.1zm6.9-31.8a3.7 3.7 0 0 1 0-5.6 4.5 4.5 0 0 1 3.3-1.2 5.2 5.2 0 0 1 3.3 1.1 3.5 3.5 0 0 1 1.2 2.8 3.8 3.8 0 0 1-1.2 2.9 4.8 4.8 0 0 1-3.3 1.2 4.5 4.5 0 0 1-3.3-1.2zm33.6 16.1h-15.5a3.9 3.9 0 0 0 1.8 2.5 6.2 6.2 0 0 0 3.4.9 7.7 7.7 0 0 0 2.7-.4 11.8 11.8 0 0 0 2.3-1.4l3.9 4.1c-2.1 2.3-5.1 3.4-9.1 3.4a13.9 13.9 0 0 1-6.6-1.4 10.4 10.4 0 0 1-4.4-3.9 11.6 11.6 0 0 1 0-11.4 10.6 10.6 0 0 1 4.2-3.9 13.3 13.3 0 0 1 6-1.4 12.4 12.4 0 0 1 5.8 1.3 10.7 10.7 0 0 1 4.1 3.8 11.6 11.6 0 0 1 1.5 6s0 .6-.1 1.8zm-14.2-6.6a4.4 4.4 0 0 0-1.4 2.7h8.7a4 4 0 0 0-1.5-2.7 3.9 3.9 0 0 0-2.9-1 4.3 4.3 0 0 0-2.9 1zM171.7 65a12.1 12.1 0 0 1-4.1-1.6l2.2-5.1a14.2 14.2 0 0 0 3.5 1.5 17.5 17.5 0 0 0 4 .5 5.1 5.1 0 0 0 2.5-.4 1.1 1.1 0 0 0 .8-1.1 1.1 1.1 0 0 0-.9-1 13 13 0 0 0-3-.5 31.9 31.9 0 0 1-4.3-.9 6 6 0 0 1-3.1-1.9 5.2 5.2 0 0 1-1.3-3.8 6.1 6.1 0 0 1 1.2-3.7 8.3 8.3 0 0 1 3.6-2.5 15.3 15.3 0 0 1 5.6-.9 17.5 17.5 0 0 1 4.6.5 12.1 12.1 0 0 1 3.8 1.3l-2.2 5.1a12.2 12.2 0 0 0-6.2-1.6 6.2 6.2 0 0 0-2.6.4 1.4 1.4 0 0 0-.8 1.1c0 .5.3.8.9 1l3 .7a21.1 21.1 0 0 1 4.4.9 6.7 6.7 0 0 1 3 1.8 5.2 5.2 0 0 1 1.3 3.8 5.6 5.6 0 0 1-1.2 3.6 8.6 8.6 0 0 1-3.6 2.5 16.4 16.4 0 0 1-5.8.9 23.9 23.9 0 0 1-5.3-.6zm22.5 0a11.9 11.9 0 0 1-4.2-1.6l2.2-5.1a16 16 0 0 0 3.5 1.5 18.3 18.3 0 0 0 4 .5 5.9 5.9 0 0 0 2.6-.4 1.1 1.1 0 0 0 .7-1.1 1.1 1.1 0 0 0-.9-1 12.9 12.9 0 0 0-2.9-.5 33.8 33.8 0 0 1-4.4-.9 6 6 0 0 1-3.1-1.9 5.2 5.2 0 0 1-1.3-3.8 6.1 6.1 0 0 1 1.2-3.7 8.3 8.3 0 0 1 3.6-2.5 15.7 15.7 0 0 1 5.6-.9 17.5 17.5 0 0 1 4.6.5 12.7 12.7 0 0 1 3.9 1.3l-2.3 5.1a11.8 11.8 0 0 0-6.1-1.6 5.6 5.6 0 0 0-2.6.4c-.6.3-.9.7-.9 1.1s.3.8.9 1l3 .7a21.1 21.1 0 0 1 4.4.9 5.8 5.8 0 0 1 3 1.8 5.2 5.2 0 0 1 1.3 3.8 5.6 5.6 0 0 1-1.2 3.6 7.5 7.5 0 0 1-3.6 2.5 16.4 16.4 0 0 1-5.8.9 23.1 23.1 0 0 1-5.2-.6zM125 105.3l-1.4-.8.6-1.1a4.2 4.2 0 0 0 2.6.8 2.5 2.5 0 0 0 2.1-.8 3.2 3.2 0 0 0 .7-2.3V83.9h1.5v17.2a4.4 4.4 0 0 1-1.1 3.2 4 4 0 0 1-3.1 1.2zm4.5-25.5a1.5 1.5 0 0 1-.4-.9 1.8 1.8 0 0 1 .4-.9 1.2 1.2 0 0 1 .9-.3 1.1 1.1 0 0 1 .8.3 1.1 1.1 0 0 1 .4.9 1.2 1.2 0 0 1-.4.9 1.1 1.1 0 0 1-.8.3 1.2 1.2 0 0 1-.9-.3zm8.6 18.9a6.9 6.9 0 0 1-2.8-2.8 8.4 8.4 0 0 1-1.1-4.1 7.8 7.8 0 0 1 1.1-4.1 7.1 7.1 0 0 1 2.8-2.9 7.7 7.7 0 0 1 4-1 7.9 7.9 0 0 1 4 1 7.9 7.9 0 0 1 3.8 7 8.3 8.3 0 0 1-1 4.1 7.5 7.5 0 0 1-2.8 2.8 7.9 7.9 0 0 1-4 1 7.7 7.7 0 0 1-4-1zm7.2-1.2a5.4 5.4 0 0 0 2.2-2.3 6.7 6.7 0 0 0 .9-3.4 6.8 6.8 0 0 0-.9-3.5 6.1 6.1 0 0 0-2.2-2.3 5.9 5.9 0 0 0-3.2-.8 6.2 6.2 0 0 0-3.3.8 6.1 6.1 0 0 0-2.2 2.3 6.7 6.7 0 0 0-.8 3.5 6.6 6.6 0 0 0 .8 3.4 5.4 5.4 0 0 0 2.2 2.3 6.3 6.3 0 0 0 3.3.9 5.9 5.9 0 0 0 3.2-.9zm22.6-20.2v22.3h-1.5v-3.7a6.4 6.4 0 0 1-2.6 2.8 7 7 0 0 1-3.8 1 7.7 7.7 0 0 1-4-1 7.5 7.5 0 0 1-2.8-2.8 9.2 9.2 0 0 1-1-4.1 9.3 9.3 0 0 1 1-4.2 7.5 7.5 0 0 1 2.8-2.8 7.7 7.7 0 0 1 4-1 6.6 6.6 0 0 1 3.7 1 7.3 7.3 0 0 1 2.7 2.8V77.3zm-4.6 20.2a5.4 5.4 0 0 0 2.2-2.3 6.7 6.7 0 0 0 .9-3.4 6.8 6.8 0 0 0-.9-3.5 6.1 6.1 0 0 0-2.2-2.3 5.9 5.9 0 0 0-3.2-.8 6.2 6.2 0 0 0-3.3.8 6.1 6.1 0 0 0-2.2 2.3 6.7 6.7 0 0 0-.8 3.5 6.6 6.6 0 0 0 .8 3.4 5.4 5.4 0 0 0 2.2 2.3 6.3 6.3 0 0 0 3.3.9 5.9 5.9 0 0 0 3.2-.9zm11.2 1.2a7.5 7.5 0 0 1-2.8-2.8 8.3 8.3 0 0 1-1-4.1 7.9 7.9 0 0 1 3.8-7 8.5 8.5 0 0 1 8 0 7.9 7.9 0 0 1 3.8 7 8.3 8.3 0 0 1-1 4.1 7.5 7.5 0 0 1-2.8 2.8 8.5 8.5 0 0 1-8 0zm7.2-1.2a5.7 5.7 0 0 0 2.3-2.3 7.7 7.7 0 0 0 .8-3.4 7.8 7.8 0 0 0-.8-3.5 6.3 6.3 0 0 0-2.3-2.3 6.8 6.8 0 0 0-6.4 0 6.3 6.3 0 0 0-2.3 2.3 7.8 7.8 0 0 0-.8 3.5 7.7 7.7 0 0 0 .8 3.4 6.3 6.3 0 0 0 8.7 2.3zm8.3-17.7a1.1 1.1 0 0 1-.4-.9 1.2 1.2 0 0 1 .4-.9 1.1 1.1 0 0 1 .8-.3 1.2 1.2 0 0 1 .9.3 1.1 1.1 0 0 1 .4.9 1.2 1.2 0 0 1-1.3 1.2 1.1 1.1 0 0 1-.8-.3zm.1 4.1h1.5v15.7h-1.5zm18.3 1.6a6.5 6.5 0 0 1 1.7 4.9v9.2h-1.5v-9a5.8 5.8 0 0 0-1.3-4.1 4.9 4.9 0 0 0-3.7-1.3 5.8 5.8 0 0 0-4.4 1.6 6.4 6.4 0 0 0-1.6 4.4v8.4h-1.5V83.9h1.5v3.4a6 6 0 0 1 2.4-2.6 7.4 7.4 0 0 1 3.8-.9 6.4 6.4 0 0 1 4.6 1.7z"/></symbol><symbol id="instagram" viewBox="0 0 256 256"><path stroke="#000" stroke-miterlimit="10" d="M128 25.6c33.3 0 37.3.2 50.4.8s18.8 2.6 23.2 4.3A37.3 37.3 0 0 1 216 40a37.3 37.3 0 0 1 9.3 14.4c1.7 4.4 3.8 11 4.3 23.2s.8 17.1.8 50.4-.2 37.3-.8 50.4-2.6 18.8-4.3 23.2a40.7 40.7 0 0 1-23.7 23.7c-4.4 1.7-11 3.8-23.2 4.3s-17.1.8-50.4.8-37.3-.2-50.4-.8-18.8-2.6-23.2-4.3A37.3 37.3 0 0 1 40 216a37.3 37.3 0 0 1-9.3-14.4c-1.7-4.4-3.8-11-4.3-23.2s-.8-17.1-.8-50.4.2-37.3.8-50.4 2.6-18.8 4.3-23.2A37.3 37.3 0 0 1 40 40a37.3 37.3 0 0 1 14.4-9.3c4.4-1.7 11-3.8 23.2-4.3s17.1-.8 50.4-.8m0-22.4c-33.9 0-38.2.1-51.5.7S54.2 6.6 46.2 9.7a61.5 61.5 0 0 0-22.1 14.4A61.5 61.5 0 0 0 9.7 46.2c-3.1 8-5.2 17-5.8 30.3s-.7 17.6-.7 51.5.1 38.2.7 51.5 2.7 22.3 5.8 30.3a61.5 61.5 0 0 0 14.4 22.1 61.5 61.5 0 0 0 22.1 14.4c8 3.1 17 5.2 30.3 5.8s17.6.7 51.5.7 38.2-.1 51.5-.7 22.3-2.7 30.3-5.8a63.9 63.9 0 0 0 36.5-36.5c3.1-8 5.2-17 5.8-30.3s.7-17.6.7-51.5-.1-38.2-.7-51.5-2.7-22.3-5.8-30.3a61.5 61.5 0 0 0-14.4-22.1 61.5 61.5 0 0 0-22.1-14.4c-8-3.1-17-5.2-30.3-5.8s-17.6-.7-51.5-.7z"/><path stroke="#000" stroke-miterlimit="10" d="M128 63.9a64.1 64.1 0 1 0 64.1 64.1A64.1 64.1 0 0 0 128 63.9zm0 105.7a41.6 41.6 0 1 1 41.6-41.6 41.6 41.6 0 0 1-41.6 41.6z"/><circle cx="194.6" cy="61.4" r="15" stroke="#000" stroke-miterlimit="10"/></symbol><symbol id="next" viewBox="0 0 256 256"><path stroke="#000" stroke-miterlimit="10" d="M178.6 91.4L95.7 11.2a26.5 26.5 0 0 0-36.6 0 26.3 26.3 0 0 0 0 37.8l81.7 79-81.7 79a26.3 26.3 0 0 0 0 37.8 26.5 26.5 0 0 0 36.6 0l82.9-80.2 18.3-17.7a26.3 26.3 0 0 0 0-37.8z"/></symbol></svg>